<?xml version="1.0" standalone="no"?>
<!DOCTYPE svg PUBLIC "-//W3C//DTD SVG 20010904//EN"
 "http://www.w3.org/TR/2001/REC-SVG-20010904/DTD/svg10.dtd">
<svg version="1.0" xmlns="http://www.w3.org/2000/svg"
 width="260.000000pt" height="260.000000pt" viewBox="0 0 260.000000 260.000000"
 preserveAspectRatio="xMidYMid meet">
<metadata>
Created by potrace 1.11, written by Peter Selinger 2001-2013
</metadata>
<g transform="translate(0.000000,260.000000) scale(0.100000,-0.100000)"
fill="#000000" stroke="none">
<path d="M0 1300 l0 -1300 1300 0 1300 0 0 1300 0 1300 -1300 0 -1300 0 0
-1300z m1963 431 c110 -43 166 -117 167 -219 0 -67 -18 -109 -63 -149 -34 -30
-35 -32 -16 -38 46 -15 99 -76 115 -133 50 -170 -54 -307 -260 -343 -76 -13
-358 -7 -411 9 l-30 8 -3 437 -2 436 42 5 c24 3 54 8 68 10 14 2 95 3 180 2
133 -3 163 -6 213 -25z m-920 -104 c90 -198 297 -734 297 -767 0 -6 -42 -10
-108 -10 l-108 0 -30 93 -30 92 -179 0 -179 0 -30 -92 -30 -93 -108 0 -107 0
39 108 c105 294 244 641 301 755 l19 37 99 0 99 0 55 -123z"/>
<path d="M1668 1594 c-5 -4 -8 -52 -8 -106 l0 -98 73 0 c138 1 197 31 197 101
0 52 -8 67 -44 86 -33 17 -205 31 -218 17z"/>
<path d="M1660 1130 l0 -110 26 -6 c38 -10 177 3 216 19 47 20 63 44 63 93 0
82 -63 114 -225 114 l-80 0 0 -110z"/>
<path d="M825 1383 c-32 -87 -60 -164 -63 -170 -3 -10 26 -13 123 -13 l126 0
-6 23 c-8 24 -116 310 -120 315 -1 1 -28 -69 -60 -155z"/>
</g>
</svg>
